<svg clip-rule="evenodd" fill-rule="evenodd" stroke-linejoin="round" stroke-miterlimit="2" version="1.1" viewBox="0 0 1528 1392" xml:space="preserve" xmlns="http://www.w3.org/2000/svg" xmlns:serif="http://www.serif.com/"><rect width="1528" height="1638" fill="none" serif:id="Page 1"/><g transform="translate(0 -22.922)" serif:id="Layer 7"><path d="m427.04 599.79 0.604-19.957 84.651-36.839 174.01-51.731 147.36-6.271 137.95 36.055 78.381 56.434 53.299 95.625v144.22l-25.082 47.029 26.649 73.677-12.54 97.193-32.92 108.16 86.218 89.354-106.6-51.731s-21.947 4.702-31.353 20.379c-9.405 15.676 58.002 72.11 58.002 72.11l-34.487-7.838-56.435-25.082-39.19 54.866-62.704 34.488-78.381 23.514-39.19-4.703-54.867-28.217-4.703-40.758 1.568-61.137 7.838-29.784 42.325-18.812 29.785 34.488 9.406 43.893 40.758-10.973 39.19-61.137 14.109-59.57-4.703-33.703-20.379-59.57-43.893-23.514-7.838 17.244-21.947 23.514-40.758 10.973-34.487-1.567-48.596-36.055-3.043-3.86-12.798 26.404s-0.399-8.166-51.356-14.331c-42.094-28.715-76.528-61.371-107.8-103.05l-38.114-86.564-81.42-123.19 9.703-70.623 44.21-50.834z" fill="#cecece"/><g fill="#b12b44"><path d="m667.39 1035.6c-3.557 4.021-7.721 7.131-12.481 9.291-7.925 3.595-17.768 4.646-29.94 1.708-14.444-3.486-33.143-13.054-56.778-30.873-58.982-44.468-149.74-184.93-190.28-278.28-12.675-29.182-20.414-54.001-21.452-70.257-0.635-9.943 1.242-17.537 4.514-22.579 34.932-53.827 103.96-92.766 174.65-119.49 103.55-39.144 209.96-52.587 209.96-52.587l0.026 0.2c29.552-4.291 59.334-6.174 88.594-4.64 108.84 5.704 210.76 48.509 270.06 164.62 2.979 5.339 43.132 81.89-2.479 252.69 25.569 99.112 0.673 189.65-27.635 250.77 0.681 1.381 1.655 3.242 2.615 4.685 3.339 5.017 8.107 10.787 13.656 16.92 27.683 30.601 74.12 69.185 74.12 69.185l24.659 20.506-31.974 2.502c-7.255 0.567-22.887-4.042-40.865-11.931-28.003-12.287-63.298-31.452-77.917-39.54-2.669 3.732-5.081 6.895-7.151 9.451 35.43 42.537 72.256 63.422 72.256 63.422l27.294 15.464-30.218 8.423s-1.127 0.494-4.069 0.638l-1.731 0.482-0.801-0.453c-2.493-0.053-5.806-0.337-10.12-1.075-13.018-2.228-39.473-9.365-90.126-31.851-1.836-0.815-3.646-1.669-5.433-2.562-18.48 25.661-74.09 88.644-182.8 103.24-43.953 5.9-72.368-3.652-90.846-18.759-17.805-14.557-26.761-34.716-30.812-53.831-5.773-27.235-1.525-51.948-1.525-51.948l0.051 0.01c-0.036-0.393-0.064-0.789-0.087-1.187-1.25-22.216 5.704-47.404 22.636-62.928 11.791-10.809 28.342-17.43 50.746-15.069 24.611 2.592 35.979 19.664 39.944 40.017 2.72 13.958 1.579 29.433 0.066 40.28 4.83-1.593 9.592-3.39 14.217-5.384 8.219-3.544 15.173-10.972 21.45-20.145 7.292-10.655 13.451-23.683 18.66-37.195 13.768-35.715 20.826-74.847 22.662-85.974-8.236-22.183-15.647-43.057-23.192-60.196-0.229-0.521-0.456-1.041-0.679-1.561-8.147-3.163-15.819-6.431-23.045-9.791-7.332 13.527-27.634 30.592-78.491 46.36-12.013 3.724-25.874 2.255-40.966-4.526-12.053-5.416-25.178-14.394-38.931-26.247zm81.305-538.42 0.021 0.165s-103.52 13.089-204.25 51.17c-65.501 24.762-130.15 59.836-162.52 109.71-0.476 0.734-0.465 1.794-0.554 3.018-0.209 2.886 0.075 6.311 0.701 10.214 2.284 14.255 9.036 33.667 18.751 56.034 39.015 89.826 125.64 225.48 182.4 268.27 16.844 12.699 30.596 20.783 41.885 24.809 8.23 2.936 14.566 3.769 19.453 1.551 4.386-1.99 6.952-6.404 8.971-11.969 2.949-8.131 4.27-18.51 4.687-30.328 1.969-55.767-16.624-140.46-17.091-190.18-0.14-14.903 1.43-27.069 4.84-35.314 3.517-8.502 9.002-13.821 15.835-16.294l8.508 23.508c-0.508 0.183-0.542 0.857-0.831 1.437-0.495 0.993-0.898 2.126-1.254 3.374-1.684 5.921-2.186 13.796-2.099 23.054 0.469 50.01 19.057 135.21 17.077 191.3-0.397 11.235-1.638 21.412-3.831 30.154 13.395 12.235 26.098 21.536 37.799 26.793 8.238 3.702 15.685 5.419 22.243 3.386 32.122-9.96 49.139-20.34 57.669-29.834 1.346-1.498 2.373-3.012 3.155-4.461-43.962-25.585-66.605-54.824-77.604-82.026-23.264-57.536 4.89-108.16 4.89-108.16l22.81 12.599s-21.992 40.166-3.542 85.797c11.343 28.053 37.695 57.476 91.317 82.071-12.636-55.643 4.806-97.692 4.806-97.692l24.125 9.851s-20.429 50.984 6.292 111.68c0.279 0.634 0.557 1.273 0.836 1.917 17.076-10.895 46.343-23.095 73.943-3.639 3.435-11.882 7.265-28.425 8.592-46.464 1.652-22.454-0.44-47.415-13.148-68.021l22.179-13.678c15.649 25.374 18.992 55.96 16.957 83.611-2.427 32.998-12.352 61.529-15.664 70.295 2.454 58.816 23.27 105.92 47.939 141.62 31.562-42.008 116.61-190.66 41.145-350.97l23.577-11.098c2.133 4.532 4.147 9.055 6.047 13.568 27.545-134.29-4.66-192.37-4.66-192.37l-0.167-0.292-0.153-0.299c-54.316-106.59-148.16-145.23-247.96-150.46-27.802-1.457-56.067-0.361-84.118 2.593zm311.94 665.72c-2.684 4.88-5.331 9.463-7.902 13.732 9.013 4.975 24.362 13.311 40.853 21.669-7.985-7.721-15.772-15.609-22.495-23.04-3.869-4.277-7.394-8.435-10.456-12.361zm-94.445 83.668c-21.724-16.563-39.23-39.299-53.744-64.791-8.352-14.669-15.709-30.253-22.384-45.964-5.562 22.538-13.885 50.11-25.395 73.29-11.571 23.304-26.688 42.058-44.426 49.706-39.307 16.942-87.089 20.715-112.82 10.367-0.094-0.038-0.187-0.076-0.281-0.114 0.329 5.186 1.004 10.835 2.232 16.625 2.922 13.787 8.971 28.56 21.814 39.06 14.359 11.74 36.729 17.692 70.885 13.106 97.167-13.044 147.35-68.573 164.12-91.285zm-82.218-199.34c11.104 29.358 22.871 64.279 38.389 97.054 19.184 40.521 43.939 78.014 81.984 94.903 12.983 5.764 24.301 10.444 34.118 14.246-41.279-39.34-92.716-107.53-97.373-205.74-21.101-22.935-45.786-9.117-57.118-0.461zm-115.89 199.81c1.032-4.409 5.361-24.721 1.98-42.075-1.797-9.223-5.944-17.91-17.097-19.086-34.554-3.64-45.978 26.762-44.634 50.62 0.168 3.007 2.272 5.019 5.032 6.661 3.397 2.021 7.706 3.397 12.61 4.353 11.825 2.306 26.632 2.051 42.109-0.473z"/><path d="m952.43 757.18c0 21.163-9.221 38.321-20.596 38.321-11.379 0-20.6-17.158-20.6-38.321 0-21.162 9.221-38.32 20.6-38.32 11.375 0 20.596 17.158 20.596 38.32" fill-rule="nonzero"/></g><g fill="#cecece"><path d="m213.53 220.72 118.7 237.8 173.46-69.567 171.44-28.252 204.83-1.927 82.188 15.411 164.38 53.936 74.471 28.875 116.87-234.34-154.74-64.852-279.31-68.062-114.94-3.21-184.92 12.199-185.93 43.663z"/><path d="m1301.5 309.64-110.26 215.48 69.921 58.498c17.639-123.46 93.764-159.99 194.26-137.01"/><path d="m1095.6 493.59 113.91-3.166-24.844 51.023z"/><path d="m233.29 309.02 110.26 215.48-84.815 90.014c-70.775-73.935-128.73-113.09-197.86-136.08-5.203-3.9-10.517-12.763-10.517-12.763z"/><path d="m439.19 492.97-113.91-3.166 24.843 51.023z"/><path d="m1301.7 310.46-110.26 215.48 84.815 90.015c70.775-73.935 128.73-113.1 197.86-136.08 5.203-3.9 10.517-12.763 10.517-12.763z"/></g><g fill="#b12b44"><path d="m414.9 460.3c-1.01 4.817-1.998 9.639-2.965 14.463-10.292-3.602-20.715-6.979-31.256-10.124z"/><path d="m309.45 447.33c-36.47-6.912-73.924-11.092-111.9-12.283 2.462 20.67 5.146 41.316 8.033 61.933 29.2 1.212 58.05 4.346 86.271 9.279 0.317 8.321 0.667 16.642 1.046 24.963-36.584-6.53-74.275-9.917-112.43-9.855-7.1-37.108-13.646-74.329-19.492-111.65 6.625-0.15 14.267 0.417 20.712 0.467 38.467 0.257 76.53 3.62 113.7 9.746z"/><path d="m248.08 327.66c-10.738 6.18-21.184 12.585-31.335 19.196-53.586 34.904-112.94 88.571-149.63 132.46l-16.756-14.003c45.362-54.28 117.52-116.84 187.74-157.11z"/><path d="m264.89 615.76-15.073-15.802c15.816-15.085 41.048-37.426 59.634-50.821 55.817-40.226 123.85-71.925 202.4-89.674l4.813 21.301c-100.46 22.698-191.04 77.06-251.78 135z"/><path d="m1297.5 329.1c10.738 6.181 21.184 12.586 31.334 19.197 53.586 34.904 112.94 88.571 149.63 132.46l16.756-14.004c-45.362-54.279-117.52-116.84-187.74-157.11z"/><path d="m1280.6 617.19 15.072-15.802c-15.815-15.086-41.047-37.426-59.634-50.821-55.817-40.226-123.85-71.925-202.4-89.674l-4.813 21.3c100.46 22.699 191.04 77.061 251.78 135z"/><path d="m130.55 437.58c4.879 21.179 9.925 42.321 15.112 63.425-15.35-10.016-31.291-19.575-47.8-28.621 10.271-11.879 21.163-23.495 32.688-34.804" fill-rule="nonzero"/><path d="m277.59 554.67c-22.821-3.808-46.083-6.346-69.617-7.525 13.634 11.225 26.671 22.838 39.096 34.784 9.659-9.38 19.834-18.48 30.521-27.259" fill-rule="nonzero"/><path d="m1130.6 460.3c1.01 4.817 1.998 9.639 2.965 14.463 10.293-3.602 20.716-6.979 31.256-10.124z"/><path d="m1236.1 447.33c36.47-6.912 73.924-11.092 111.9-12.283-2.462 20.67-5.145 41.316-8.033 61.933-29.2 1.212-58.05 4.346-86.271 9.279-0.316 8.321-0.666 16.642-1.046 24.963 36.584-6.53 74.275-9.917 112.43-9.855 7.1-37.108 13.645-74.329 19.491-111.65-6.625-0.15-14.266 0.417-20.712 0.467-38.467 0.257-76.53 3.62-113.7 9.746z"/><g fill-rule="nonzero"><path d="m1415 437.58c-4.879 21.179-9.925 42.321-15.112 63.425 15.35-10.016 31.292-19.575 47.8-28.621-10.271-11.879-21.163-23.495-32.688-34.804"/><path d="m1267.9 554.67c22.821-3.808 46.083-6.346 69.617-7.525-13.634 11.225-26.671 22.838-39.096 34.784-9.658-9.38-19.833-18.48-30.521-27.259"/><path d="m1132.5 379.64c-20.858-60.692-47.3-121.31-80.037-180.36-21.446 13.592-42.155 27.842-62.096 42.696 14.958 26.475 28.641 53.275 41.046 80.288-7.6 5.45-15.088 10.991-22.463 16.62-17.283-35.558-36.883-70.675-58.783-105.08 35.458-27.85 73.487-53.796 113.94-77.462 37.304 64.933 67.388 131.7 90.254 198.86 21.88-10.85 44.45-20.933 67.68-30.192-9.405-29.754-20.134-59.466-32.2-89.029 9.37-4.371 18.85-8.616 28.441-12.733 16.179 40.371 29.925 80.992 41.259 121.6-42.742 14.875-83.405 32.579-121.79 52.721-1.837-5.634-3.354-12.417-5.25-17.925"/></g><path d="m1211.5 451.43-13.639 24.325c-88.662-49.712-183.15-82.868-279.57-99.446l4.725-27.484c99.499 17.106 197 51.309 288.49 102.6z"/><path d="m1327.6 218.86-13.639 24.324c-112.87-63.287-233.14-105.49-355.89-126.6l4.726-27.484c125.82 21.635 249.11 64.883 364.81 129.76z"/><g fill-rule="nonzero"><path d="m878.26 326.61c15.537 1.837 31.041 4.083 46.5 6.733 2.983-19.525 5.966-39.054 8.954-58.583-19.354 16.721-37.842 34.029-55.454 51.85l93.065 15.989c-11.45-22.816-24.236-45.498-37.611-67.839-2.992 19.525-5.984 39.054-8.976 58.579 15.458 2.659 31.241 5.789 46.587 9.26"/><path d="m1174.6 414.76c22.366-10.779 45.458-20.729 69.237-29.779-8.729 17.487-17.458 34.975-26.183 52.462-14.217-7.967-28.571-15.529-43.054-22.683"/><path d="m1256.3 230.01c9.521 26.538 18.033 53.142 25.55 79.742 8.733-17.483 17.466-34.967 26.204-52.45-17.088-9.583-34.342-18.683-51.754-27.292"/><path d="m900.07 123.88c18.679 2.217 37.321 4.925 55.904 8.121-2.991 19.525-5.983 39.054-8.975 58.579-14.683-22.566-30.329-44.821-46.929-66.7l111.46 19.173c-22.35 15.175-43.871 31.042-64.533 47.529 2.991-19.529 5.983-39.054 8.975-58.583 18.583 3.196 37.108 6.879 55.558 11.054"/><path d="m828.81 307.63c-37.304-50.454-79.992-99.071-128.36-144.12-16.159 20.079-31.45 40.534-45.875 61.3 22.025 20.113 42.895 40.954 62.591 62.425-5.533 7.717-10.937 15.479-16.212 23.292-26.854-27.946-55.838-54.704-86.867-80.013 25.3-38.295 53.513-75.637 84.563-111.64 54.42 49.104 102.31 102.31 143.34 158.2 17.188-17.688 35.213-34.909 54.059-51.592-17.421-24.954-36.109-49.45-56.05-73.383 7.446-7.313 15.029-14.546 22.746-21.696 26.908 32.75 51.529 66.517 73.829 101.02-35.2 28.729-67.775 59.333-97.604 91.416-3.363-4.716-6.775-10.629-10.163-15.208"/></g><path d="m923.13 348.86-4.775 27.457c-96.403-16.548-196.37-16.33-292.77 0.247l-3.824-27.664c99.526-17.115 201.84-17.125 301.37-0.04z"/><path d="m962.9 89.112-4.809 27.475c-122.73-21.065-248.28-21.102-371 0l-5.078-27.423c125.85-21.64 255.03-21.654 380.89-0.052z"/><g fill-rule="nonzero"><path d="m573.48 342.68c15.346-3.479 46.209-9.227 46.209-9.227s-5.973-39.043-8.973-58.572c-13.367 22.35-25.794 44.979-37.236 67.799l93.06-16.026c-17.616-17.817-36.466-35.061-55.824-51.773 2.992 19.529 8.972 58.57 8.972 58.57s31.315-4.951 46.852-6.797"/><path d="m645.1 123.88c-16.6 21.879-32.808 44.808-47.491 67.374-2.992-19.525-6.208-39.728-9.2-59.253 18.583-3.196 38.011-5.904 56.691-8.121"/><path d="m520.62 341.33c-50.763-35.25-106.3-66.846-166.44-92.909-9.575 24.613-18.233 49.317-25.979 74.042 27.325 11.413 53.717 23.963 79.125 37.55-3.025 9.221-5.908 18.45-8.662 27.679-34.284-17.233-70.329-32.537-107.99-45.641 13.104-45.255 29.234-90.496 48.413-135.35 67.175 27.825 129.06 62.029 184.98 101.2 11.125-22.575 23.163-44.975 36.113-67.13-24.042-17.816-49.196-34.766-75.421-50.729 4.933-9.45 10.008-18.871 15.237-28.25 35.484 21.996 69.009 45.763 100.47 71.021-24.825 39.05-46.696 79.017-65.592 119.51-4.625-3.337-9.654-7.791-14.262-10.991"/></g><path d="m621.88 348.87 4.734 27.483c-96.422 16.61-190.9 49.794-279.55 99.539l-13.647-24.32c91.475-51.33 188.97-85.562 288.46-102.7z"/><path d="m582.74 89.164 5.016 27.258c-122.74 21.147-244.02 63.611-356.88 126.94l-13.647-24.321c115.68-64.909 239.69-108.2 365.51-129.87z"/><g fill-rule="nonzero"><path d="m370.24 414.93c-22.371-10.766-45.467-20.708-69.25-29.75 8.733 17.484 17.471 34.967 26.204 52.45 14.212-7.97 28.562-15.541 43.046-22.7"/><path d="m533.63 143.06c22.35 15.175 43.866 31.041 64.533 47.529-2.992-19.529-5.983-39.054-8.975-58.584-18.583 3.196-37.108 6.88-55.558 11.055"/><path d="m288.86 230.01c-9.521 26.538-18.033 53.142-25.55 79.742-8.733-17.483-17.467-34.967-26.204-52.45 17.087-9.583 34.341-18.683 51.754-27.292"/><path d="m347.23 475.58 170.9 6.504s-18.871-87.387-44.562-79.487c-75.884 23.333-126.34 72.983-126.34 72.983"/><path d="m1198.3 475.58-170.9 6.504s18.871-87.387 44.563-79.487c75.883 23.333 126.34 72.983 126.34 72.983"/></g></g></g></svg>
